<svg width="14" height="15" viewBox="0 0 14 15" fill="none" xmlns="http://www.w3.org/2000/svg">
<path d="M2.625 0.5V1.125H0.125V14.875H13.875V1.125H11.375V0.5H10.125V1.125H3.875V0.5H2.625ZM1.375 2.375H2.625V3H3.875V2.375H10.125V3H11.375V2.375H12.625V3.625H1.375V2.375ZM1.375 4.875H12.625V13.625H1.375V4.875ZM5.125 6.125V7.375H6.375V6.125H5.125ZM7.625 6.125V7.375H8.875V6.125H7.625ZM10.125 6.125V7.375H11.375V6.125H10.125ZM2.625 8.625V9.875H3.875V8.625H2.625ZM5.125 8.625V9.875H6.375V8.625H5.125ZM7.625 8.625V9.875H8.875V8.625H7.625ZM10.125 8.625V9.875H11.375V8.625H10.125ZM2.625 11.125V12.375H3.875V11.125H2.625ZM5.125 11.125V12.375H6.375V11.125H5.125ZM7.625 11.125V12.375H8.875V11.125H7.625Z" fill="#BDEBFF"/>
</svg>
